<svg width="70" height="70" viewBox="0 0 60 60" fill="none" xmlns="http://www.w3.org/2000/svg">
<g>
<path d="M30 0C13.4291 0 0 13.4291 0 30C0 38.9409 3.90945 46.9724 10.122 52.4764C15.4252 57.1535 22.3819 60 30 60C37.6299 60 44.5866 57.1535 49.878 52.4646C56.0905 46.9724 60 38.9409 60 30C60 13.4291 46.5709 0 30 0Z" fill="#89D6F7"/>
<path d="M47.5276 50.0315C45.9921 48.8858 43.2047 46.9843 40.1693 45.5788C37.1339 44.1851 35.3504 40.9134 35.8346 37.6181C35.8346 37.5709 35.8465 37.5236 35.8583 37.4646C35.8583 37.4646 42.7677 32.7874 41.811 28.2284C41.811 28.2284 42.0236 28.2402 42.3425 28.2165C45.3898 27.9331 45.5787 23.3977 42.5669 22.9134C42.5433 22.9134 42.5079 22.9016 42.4842 22.9016L42.3898 22.4055C43.311 19.1811 45.5551 9.4134 38.7638 10.3583C38.7638 10.3583 33.8858 2.29135 23.5748 6.17718C13.252 10.0512 15.9449 19.2992 15.9449 19.2992L17.2205 22.9843C14.4449 23.6693 14.7047 27.9567 17.6575 28.2284C17.9764 28.252 18.2008 28.2402 18.2008 28.2402C17.2323 32.7992 24.1417 37.4764 24.1417 37.4764C24.1535 37.5354 24.1535 37.5827 24.1653 37.6299C24.6378 40.9252 22.8543 44.1969 19.8307 45.5906C16.7835 46.9961 14.0079 48.9095 12.4724 50.0433C11.5512 50.7165 10.7362 51.5315 10.1102 52.4882C15.4252 57.1536 22.3819 60 30 60C37.6299 60 44.5866 57.1536 49.8779 52.4646C49.2638 51.5197 48.4488 50.7047 47.5276 50.0315Z" fill="#41596B"/>
</g>
<defs>
<clipPath id="clip0">
<rect width="70" height="70" fill="white"/>
</clipPath>
</defs>
</svg>
